<?xml version="1.0" standalone="no"?>
<!DOCTYPE svg PUBLIC "-//W3C//DTD SVG 20010904//EN"
 "http://www.w3.org/TR/2001/REC-SVG-20010904/DTD/svg10.dtd">
<svg version="1.0" xmlns="http://www.w3.org/2000/svg"
 width="229.000000pt" height="229.000000pt" viewBox="0 0 229.000000 229.000000"
 preserveAspectRatio="xMidYMid meet">
<metadata>
Created by potrace 1.11, written by Peter Selinger 2001-2013
</metadata>
<g transform="translate(0.000000,229.000000) scale(0.100000,-0.100000)"
fill="#000000" stroke="none">
<path d="M902 2170 c-73 -46 -124 -118 -152 -211 -25 -80 -25 -106 -1 -167
l20 -50 -43 -50 c-59 -69 -108 -137 -147 -205 -108 -186 -146 -279 -156 -374
-12 -123 62 -275 166 -342 51 -33 58 -51 20 -51 -42 0 -110 -53 -138 -107 -14
-28 -14 -128 1 -156 6 -12 21 -29 33 -39 14 -11 24 -33 28 -58 7 -53 -10 -179
-29 -207 -8 -12 -14 -25 -14 -28 0 -3 251 -5 559 -5 l558 0 -3 37 -4 38 18
-35 17 -35 109 -3 108 -3 -26 45 c-32 55 -86 199 -86 230 0 13 9 31 20 41 11
10 29 43 41 74 20 55 20 57 3 114 -21 69 -71 123 -148 158 -28 13 -52 24 -54
25 -1 1 13 25 32 54 47 72 60 134 54 266 -7 146 -44 244 -156 419 -60 92 -221
252 -293 289 l-56 30 9 35 c6 19 8 71 6 116 -2 67 -7 88 -28 118 -35 51 -86
77 -152 77 -47 0 -64 -6 -116 -40z m228 -600 c-13 -8 -12 -13 9 -32 l23 -23
-7 25 c-6 20 -5 22 5 13 7 -6 18 -10 24 -9 6 2 8 1 4 -1 -5 -3 -8 -11 -8 -18
0 -7 -7 -15 -15 -19 -8 -3 -12 -12 -9 -21 5 -11 -1 -15 -19 -15 -14 0 -29 5
-32 10 -3 6 -13 10 -21 10 -8 0 -12 -4 -9 -10 3 -5 -3 -10 -15 -10 -12 0 -18
5 -15 10 3 6 2 10 -3 10 -5 0 -12 10 -15 23 -6 21 -5 21 8 3 7 -10 20 -16 27
-14 7 3 27 -1 45 -9 41 -17 42 -17 36 7 -10 38 -53 70 -94 70 -30 0 -37 -3
-33 -15 4 -8 1 -15 -5 -15 -6 0 -11 -8 -11 -17 0 -10 -8 -40 -18 -68 -17 -48
-20 -50 -65 -59 -26 -5 -49 -7 -52 -5 -2 3 7 36 20 75 14 38 25 77 25 86 0 21
21 25 140 26 64 1 90 -1 80 -8z m-234 -11 c3 -6 1 -16 -5 -22 -6 -6 -11 -21
-11 -33 0 -12 -9 -43 -20 -68 -19 -45 -20 -46 -62 -45 -24 1 -36 3 -27 6 12 3
33 52 43 103 1 3 5 11 10 18 4 7 5 16 2 19 -3 4 -6 1 -6 -5 0 -7 -5 -12 -11
-12 -18 0 2 20 34 34 40 18 44 18 53 5z m320 -41 c4 -7 3 -8 -4 -4 -7 4 -12 2
-12 -5 0 -7 -3 -10 -6 -6 -6 5 3 27 11 27 2 0 7 -5 11 -12z m-453 -4 c7 -7
-17 -34 -31 -34 -6 0 -13 7 -16 16 -5 12 -1 14 15 9 15 -5 19 -4 15 4 -8 12 6
15 17 5z m23 -69 c-13 -43 -26 -45 -26 -5 0 17 5 30 10 30 6 0 10 8 10 18 0
12 2 14 9 4 4 -7 3 -28 -3 -47z m421 18 c-15 -15 -169 -24 -160 -10 3 5 26 7
52 6 25 -1 59 2 74 6 26 7 26 8 10 21 -16 13 -15 13 10 2 24 -10 26 -14 14
-25z m-187 3 c0 -29 26 -40 73 -32 28 5 29 5 9 -4 -13 -5 -43 -12 -68 -14 -47
-4 -51 2 -38 52 8 29 24 28 24 -2z m-277 -43 c5 -26 4 -26 -9 -8 -16 22 -18
35 -5 35 5 0 11 -12 14 -27z m245 -367 c2 -52 0 -67 -10 -64 -32 11 -53 120
-25 131 26 11 32 -2 35 -67z"/>
</g>
</svg>
